<svg width="26" height="25" viewBox="0 0 26 25" fill="none" xmlns="http://www.w3.org/2000/svg">
<g clip-path="url(#clip0_471_846)">
<path d="M25.3001 12.4612C25.3001 5.81056 19.6373 0.42041 12.6501 0.42041C5.66288 0.42041 0 5.81056 0 12.4612C0 19.1119 5.66288 24.502 12.6501 24.502C12.7242 24.502 12.7983 24.502 12.8724 24.4973V15.1281H10.1546V12.1132H12.8724V9.89315C12.8724 7.32036 14.5229 5.91874 16.9343 5.91874C18.0906 5.91874 19.0838 5.99869 19.3704 6.03632V8.72669H17.7101C16.4006 8.72669 16.1437 9.31933 16.1437 10.1895V12.1085H19.2815L18.8713 15.1234H16.1437V24.0364C21.431 22.5924 25.3001 17.9596 25.3001 12.4612Z" fill="#E6E1E5"/>
</g>
<defs>
<clipPath id="clip0_471_846">
<rect width="25.3001" height="24.0816" fill="white" transform="translate(0 0.42041)"/>
</clipPath>
</defs>
</svg>
