<svg width="26" height="25" viewBox="0 0 26 25" fill="none" xmlns="http://www.w3.org/2000/svg">
<g clip-path="url(#clip0_471_848)">
<path d="M15.3712 12.4614C15.3712 13.7343 14.2871 14.7661 12.9499 14.7661C11.6126 14.7661 10.5286 13.7343 10.5286 12.4614C10.5286 11.1886 11.6126 10.1567 12.9499 10.1567C14.2871 10.1567 15.3712 11.1886 15.3712 12.4614Z" fill="#E6E1E5"/>
<path d="M18.6122 8.3835C18.4958 8.08329 18.3101 7.81156 18.0688 7.58851C17.8345 7.35885 17.5492 7.18211 17.2336 7.07132C16.9776 6.9767 16.5931 6.86407 15.8849 6.83339C15.1188 6.80013 14.8891 6.79297 12.9496 6.79297C11.0099 6.79297 10.7802 6.79995 10.0143 6.83321C9.30605 6.86407 8.92135 6.9767 8.66559 7.07132C8.35 7.18211 8.06451 7.35885 7.83038 7.58851C7.58909 7.81156 7.4034 8.08311 7.28682 8.3835C7.18741 8.62713 7.06909 8.9933 7.03685 9.6674C7.00191 10.3964 6.99438 10.6151 6.99438 12.4614C6.99438 14.3075 7.00191 14.5261 7.03685 15.2553C7.06909 15.9294 7.18741 16.2954 7.28682 16.539C7.4034 16.8394 7.5889 17.111 7.83018 17.334C8.06451 17.5637 8.3498 17.7404 8.6654 17.8512C8.92135 17.946 9.30605 18.0586 10.0143 18.0893C10.7802 18.1226 11.0097 18.1296 12.9494 18.1296C14.8893 18.1296 15.119 18.1226 15.8847 18.0893C16.5929 18.0586 16.9776 17.946 17.2336 17.8512C17.8671 17.6186 18.3678 17.142 18.6122 16.539C18.7116 16.2954 18.8299 15.9294 18.8623 15.2553C18.8973 14.5261 18.9046 14.3075 18.9046 12.4614C18.9046 10.6151 18.8973 10.3964 18.8623 9.6674C18.8301 8.9933 18.7118 8.62713 18.6122 8.3835ZM12.9496 16.0115C10.8894 16.0115 9.21938 14.4221 9.21938 12.4612C9.21938 10.5002 10.8894 8.9108 12.9496 8.9108C15.0095 8.9108 16.6796 10.5002 16.6796 12.4612C16.6796 14.4221 15.0095 16.0115 12.9496 16.0115ZM16.8271 9.60015C16.3457 9.60015 15.9554 9.22865 15.9554 8.77044C15.9554 8.31222 16.3457 7.94072 16.8271 7.94072C17.3085 7.94072 17.6988 8.31222 17.6988 8.77044C17.6986 9.22865 17.3085 9.60015 16.8271 9.60015Z" fill="#E6E1E5"/>
<path d="M12.9501 0.42041C5.96475 0.42041 0.300049 5.81228 0.300049 12.4612C0.300049 19.1102 5.96475 24.502 12.9501 24.502C19.9355 24.502 25.6002 19.1102 25.6002 12.4612C25.6002 5.81228 19.9355 0.42041 12.9501 0.42041ZM20.1702 15.3118C20.1351 16.0478 20.0121 16.5503 19.8326 16.9901C19.4552 17.9189 18.6839 18.6531 17.7082 19.0122C17.2463 19.1831 16.7182 19.3 15.9451 19.3336C15.1705 19.3672 14.923 19.3753 12.9503 19.3753C10.9774 19.3753 10.7301 19.3672 9.95534 19.3336C9.18228 19.3 8.65416 19.1831 8.19225 19.0122C7.70738 18.8386 7.26844 18.5665 6.90555 18.2147C6.5361 17.8695 6.25023 17.4515 6.06782 16.9901C5.88831 16.5505 5.76535 16.0478 5.73022 15.312C5.69451 14.5745 5.68621 14.3389 5.68621 12.4612C5.68621 10.5835 5.69451 10.348 5.73003 9.61068C5.76516 8.87467 5.88792 8.37217 6.06744 7.93232C6.24985 7.47098 6.53591 7.053 6.90555 6.70778C7.26824 6.35594 7.70738 6.08383 8.19206 5.91021C8.65416 5.73934 9.18209 5.62249 9.95534 5.58887C10.73 5.55525 10.9774 5.54716 12.9501 5.54716C14.9228 5.54716 15.1703 5.55525 15.9449 5.58905C16.7182 5.62249 17.2461 5.73934 17.7082 5.91003C18.1929 6.08365 18.632 6.35594 18.9949 6.70778C19.3643 7.05318 19.6504 7.47098 19.8326 7.93232C20.0123 8.37217 20.1351 8.87467 20.1704 9.61068C20.2057 10.348 20.214 10.5835 20.214 12.4612C20.214 14.3389 20.2057 14.5745 20.1702 15.3118Z" fill="#E6E1E5"/>
</g>
<defs>
<clipPath id="clip0_471_848">
<rect width="25.3001" height="24.0816" fill="white" transform="translate(0.300049 0.42041)"/>
</clipPath>
</defs>
</svg>
