<svg width="26" height="25" viewBox="0 0 26 25" fill="none" xmlns="http://www.w3.org/2000/svg">
<g clip-path="url(#clip0_471_852)">
<path d="M13.2504 0.42041C6.26504 0.42041 0.600342 5.81228 0.600342 12.4612C0.600342 19.1102 6.26504 24.502 13.2504 24.502C20.2358 24.502 25.9005 19.1102 25.9005 12.4612C25.9005 5.81228 20.2358 0.42041 13.2504 0.42041ZM9.57445 18.6227H6.49358V9.80029H9.57445V18.6227ZM8.03411 8.59558H8.01404C6.9802 8.59558 6.31156 7.91818 6.31156 7.07156C6.31156 6.20583 7.00066 5.54716 8.05457 5.54716C9.10849 5.54716 9.75705 6.20583 9.77713 7.07156C9.77713 7.91818 9.10849 8.59558 8.03411 8.59558ZM20.6834 18.6227H17.6029V13.9029C17.6029 12.7168 17.1569 11.9078 16.0421 11.9078C15.1911 11.9078 14.6842 12.4535 14.4615 12.9803C14.38 13.1688 14.3601 13.4322 14.3601 13.6959V18.6227H11.2794C11.2794 18.6227 11.3198 10.628 11.2794 9.80029H14.3601V11.0495C14.7695 10.4483 15.502 9.59323 17.1366 9.59323C19.1635 9.59323 20.6834 10.8542 20.6834 13.564V18.6227Z" fill="#E6E1E5"/>
</g>
<defs>
<clipPath id="clip0_471_852">
<rect width="25.3001" height="24.0816" fill="white" transform="translate(0.600342 0.42041)"/>
</clipPath>
</defs>
</svg>
